# Vectary OBJ Export units=mm
mtllib Jonathan.mtl
o 000_Box
g Box
usemtl Glass_31dba20d-c091-4bb4-824a-73a05e61b1b8
v 77.901 0.000 -47.870
v 79.890 -0.000 4.187
v 78.698 -0.000 4.205
v 79.093 0.000 -47.888
v 81.082 -0.000 4.169
v 80.285 0.000 -47.907
v 80.688 -0.000 56.262
v 79.495 -0.000 56.280
v 81.880 -0.000 56.244
v 81.082 65.218 4.169
v 81.880 65.218 56.244
v 80.285 65.218 -47.907
v 81.082 130.436 4.169
v 81.880 130.436 56.244
v 80.285 130.436 -47.907
v 79.093 65.218 -47.888
v 77.901 65.218 -47.870
v 79.093 130.436 -47.888
v 77.901 130.436 -47.870
v 80.688 65.218 56.262
v 79.495 65.218 56.280
v 80.688 130.436 56.262
v 79.495 130.436 56.280
v 78.698 65.218 4.205
v 78.698 130.436 4.205
v 79.890 130.436 4.187
vn 0.00000 -1.00000 -0.00000
vn 0.00000 -1.00000 -0.00000
vn 0.00000 -1.00000 -0.00000
vn 0.00000 -1.00000 -0.00000
vn 0.00000 -1.00000 -0.00000
vn 0.00000 -1.00000 -0.00000
vn 0.00000 -1.00000 -0.00000
vn 0.00000 -1.00000 -0.00000
vn 0.00000 -1.00000 -0.00000
vn 0.00000 -1.00000 -0.00000
vn 0.00000 -1.00000 -0.00000
vn 0.00000 -1.00000 -0.00000
vn 0.00000 -1.00000 -0.00000
vn 0.00000 -1.00000 -0.00000
vn 0.00000 -1.00000 -0.00000
vn 0.00000 -1.00000 -0.00000
vn 0.99988 0.00000 -0.01531
vn 0.99988 0.00000 -0.01531
vn 0.99988 0.00000 -0.01531
vn 0.99988 0.00000 -0.01531
vn 0.99988 0.00000 -0.01531
vn 0.99988 0.00000 -0.01531
vn 0.99988 0.00000 -0.01531
vn 0.99988 0.00000 -0.01531
vn 0.99988 0.00000 -0.01531
vn 0.99988 0.00000 -0.01531
vn 0.99988 0.00000 -0.01531
vn 0.99988 0.00000 -0.01531
vn 0.99988 0.00000 -0.01531
vn 0.99988 0.00000 -0.01531
vn 0.99988 0.00000 -0.01531
vn 0.99988 0.00000 -0.01531
vn -0.01531 0.00000 -0.99988
vn -0.01531 0.00000 -0.99988
vn -0.01531 0.00000 -0.99988
vn -0.01531 0.00000 -0.99988
vn -0.01531 0.00000 -0.99988
vn -0.01531 0.00000 -0.99988
vn -0.01531 0.00000 -0.99988
vn -0.01531 0.00000 -0.99988
vn -0.01531 0.00000 -0.99988
vn -0.01531 0.00000 -0.99988
vn -0.01531 0.00000 -0.99988
vn -0.01531 0.00000 -0.99988
vn -0.01531 0.00000 -0.99988
vn -0.01531 0.00000 -0.99988
vn -0.01531 0.00000 -0.99988
vn -0.01531 0.00000 -0.99988
vn 0.01531 -0.00000 0.99988
vn 0.01531 -0.00000 0.99988
vn 0.01531 -0.00000 0.99988
vn 0.01531 -0.00000 0.99988
vn 0.01531 -0.00000 0.99988
vn 0.01531 -0.00000 0.99988
vn 0.01531 -0.00000 0.99988
vn 0.01531 -0.00000 0.99988
vn 0.01531 -0.00000 0.99988
vn 0.01531 -0.00000 0.99988
vn 0.01531 -0.00000 0.99988
vn 0.01531 -0.00000 0.99988
vn 0.01531 -0.00000 0.99988
vn 0.01531 -0.00000 0.99988
vn 0.01531 -0.00000 0.99988
vn 0.01531 -0.00000 0.99988
vn -0.99988 -0.00000 0.01531
vn -0.99988 -0.00000 0.01531
vn -0.99988 -0.00000 0.01531
vn -0.99988 -0.00000 0.01531
vn -0.99988 -0.00000 0.01531
vn -0.99988 -0.00000 0.01531
vn -0.99988 -0.00000 0.01531
vn -0.99988 -0.00000 0.01531
vn -0.99988 -0.00000 0.01531
vn -0.99988 -0.00000 0.01531
vn -0.99988 -0.00000 0.01531
vn -0.99988 -0.00000 0.01531
vn -0.99988 -0.00000 0.01531
vn -0.99988 -0.00000 0.01531
vn -0.99988 -0.00000 0.01531
vn -0.99988 -0.00000 0.01531
vn 0.00000 1.00000 0.00000
vn 0.00000 1.00000 0.00000
vn 0.00000 1.00000 0.00000
vn 0.00000 1.00000 0.00000
vn 0.00000 1.00000 0.00000
vn 0.00000 1.00000 0.00000
vn 0.00000 1.00000 0.00000
vn 0.00000 1.00000 0.00000
vn 0.00000 1.00000 0.00000
vn 0.00000 1.00000 0.00000
vn 0.00000 1.00000 0.00000
vn 0.00000 1.00000 0.00000
vn 0.00000 1.00000 0.00000
vn 0.00000 1.00000 0.00000
vn 0.00000 1.00000 0.00000
vn 0.00000 1.00000 0.00000
f 3//3 1//1 4//4 2//2 
f 2//7 4//5 6//8 5//6 
f 8//11 3//9 2//12 7//10 
f 7//15 2//13 5//16 9//14 
f 11//19 9//17 5//20 10//18 
f 10//23 5//21 6//24 12//22 
f 14//27 11//25 10//28 13//26 
f 13//31 10//29 12//32 15//30 
f 12//35 6//33 4//36 16//34 
f 16//39 4//37 1//40 17//38 
f 15//43 12//41 16//44 18//42 
f 18//47 16//45 17//48 19//46 
f 21//51 8//49 7//52 20//50 
f 20//55 7//53 9//56 11//54 
f 23//59 21//57 20//60 22//58 
f 22//63 20//61 11//64 14//62 
f 17//67 1//65 3//68 24//66 
f 24//71 3//69 8//72 21//70 
f 19//75 17//73 24//76 25//74 
f 25//79 24//77 21//80 23//78 
f 13//83 15//81 18//84 26//82 
f 26//87 18//85 19//88 25//86 
f 14//91 13//89 26//92 22//90 
f 22//95 26//93 25//96 23//94 
o 001_Box
g Box
usemtl Glass_31dba20d-c091-4bb4-824a-73a05e61b1b8
v -21.454 0.000 -88.881
v 28.669 0.000 -74.686
v 28.318 0.000 -73.547
v -21.103 0.000 -90.020
v 29.020 0.000 -75.826
v -20.752 0.000 -91.160
v 78.442 0.000 -59.352
v 78.091 0.000 -58.213
v 78.793 0.000 -60.492
v 29.020 65.218 -75.826
v 78.793 65.218 -60.492
v -20.752 65.218 -91.160
v 29.020 130.436 -75.826
v 78.793 130.436 -60.492
v -20.752 130.436 -91.160
v -21.103 65.218 -90.020
v -21.454 65.218 -88.881
v -21.103 130.436 -90.020
v -21.454 130.436 -88.881
v 78.442 65.218 -59.352
v 78.091 65.218 -58.213
v 78.442 130.436 -59.352
v 78.091 130.436 -58.213
v 28.318 65.218 -73.547
v 28.318 130.436 -73.547
v 28.669 130.436 -74.686
vn 0.00000 -1.00000 -0.00000
vn 0.00000 -1.00000 -0.00000
vn 0.00000 -1.00000 -0.00000
vn 0.00000 -1.00000 -0.00000
vn 0.00000 -1.00000 -0.00000
vn 0.00000 -1.00000 -0.00000
vn 0.00000 -1.00000 -0.00000
vn 0.00000 -1.00000 -0.00000
vn 0.00000 -1.00000 -0.00000
vn 0.00000 -1.00000 -0.00000
vn 0.00000 -1.00000 -0.00000
vn 0.00000 -1.00000 -0.00000
vn 0.00000 -1.00000 -0.00000
vn 0.00000 -1.00000 -0.00000
vn 0.00000 -1.00000 -0.00000
vn 0.00000 -1.00000 -0.00000
vn 0.29442 0.00000 -0.95567
vn 0.29442 0.00000 -0.95567
vn 0.29442 0.00000 -0.95567
vn 0.29442 0.00000 -0.95567
vn 0.29442 0.00000 -0.95567
vn 0.29442 0.00000 -0.95567
vn 0.29442 0.00000 -0.95567
vn 0.29442 0.00000 -0.95567
vn 0.29442 0.00000 -0.95567
vn 0.29442 0.00000 -0.95567
vn 0.29442 0.00000 -0.95567
vn 0.29442 0.00000 -0.95567
vn 0.29442 0.00000 -0.95567
vn 0.29442 0.00000 -0.95567
vn 0.29442 0.00000 -0.95567
vn 0.29442 0.00000 -0.95567
vn -0.95567 0.00000 -0.29442
vn -0.95567 0.00000 -0.29442
vn -0.95567 0.00000 -0.29442
vn -0.95567 0.00000 -0.29442
vn -0.95567 0.00000 -0.29442
vn -0.95567 0.00000 -0.29442
vn -0.95567 0.00000 -0.29442
vn -0.95567 0.00000 -0.29442
vn -0.95567 0.00000 -0.29442
vn -0.95567 0.00000 -0.29442
vn -0.95567 0.00000 -0.29442
vn -0.95567 0.00000 -0.29442
vn -0.95567 0.00000 -0.29442
vn -0.95567 0.00000 -0.29442
vn -0.95567 0.00000 -0.29442
vn -0.95567 0.00000 -0.29442
vn 0.95567 -0.00000 0.29442
vn 0.95567 -0.00000 0.29442
vn 0.95567 -0.00000 0.29442
vn 0.95567 -0.00000 0.29442
vn 0.95567 -0.00000 0.29442
vn 0.95567 -0.00000 0.29442
vn 0.95567 -0.00000 0.29442
vn 0.95567 -0.00000 0.29442
vn 0.95567 -0.00000 0.29442
vn 0.95567 -0.00000 0.29442
vn 0.95567 -0.00000 0.29442
vn 0.95567 -0.00000 0.29442
vn 0.95567 -0.00000 0.29442
vn 0.95567 -0.00000 0.29442
vn 0.95567 -0.00000 0.29442
vn 0.95567 -0.00000 0.29442
vn -0.29442 -0.00000 0.95567
vn -0.29442 -0.00000 0.95567
vn -0.29442 -0.00000 0.95567
vn -0.29442 -0.00000 0.95567
vn -0.29442 -0.00000 0.95567
vn -0.29442 -0.00000 0.95567
vn -0.29442 -0.00000 0.95567
vn -0.29442 -0.00000 0.95567
vn -0.29442 -0.00000 0.95567
vn -0.29442 -0.00000 0.95567
vn -0.29442 -0.00000 0.95567
vn -0.29442 -0.00000 0.95567
vn -0.29442 -0.00000 0.95567
vn -0.29442 -0.00000 0.95567
vn -0.29442 -0.00000 0.95567
vn -0.29442 -0.00000 0.95567
vn 0.00000 1.00000 0.00000
vn 0.00000 1.00000 0.00000
vn 0.00000 1.00000 0.00000
vn 0.00000 1.00000 0.00000
vn 0.00000 1.00000 0.00000
vn 0.00000 1.00000 0.00000
vn 0.00000 1.00000 0.00000
vn 0.00000 1.00000 0.00000
vn 0.00000 1.00000 0.00000
vn 0.00000 1.00000 0.00000
vn 0.00000 1.00000 0.00000
vn 0.00000 1.00000 0.00000
vn 0.00000 1.00000 0.00000
vn 0.00000 1.00000 0.00000
vn 0.00000 1.00000 0.00000
vn 0.00000 1.00000 0.00000
f 29//99 27//97 30//100 28//98 
f 28//103 30//101 32//104 31//102 
f 34//107 29//105 28//108 33//106 
f 33//111 28//109 31//112 35//110 
f 37//115 35//113 31//116 36//114 
f 36//119 31//117 32//120 38//118 
f 40//123 37//121 36//124 39//122 
f 39//127 36//125 38//128 41//126 
f 38//131 32//129 30//132 42//130 
f 42//135 30//133 27//136 43//134 
f 41//139 38//137 42//140 44//138 
f 44//143 42//141 43//144 45//142 
f 47//147 34//145 33//148 46//146 
f 46//151 33//149 35//152 37//150 
f 49//155 47//153 46//156 48//154 
f 48//159 46//157 37//160 40//158 
f 43//163 27//161 29//164 50//162 
f 50//167 29//165 34//168 47//166 
f 45//171 43//169 50//172 51//170 
f 51//175 50//173 47//176 49//174 
f 39//179 41//177 44//180 52//178 
f 52//183 44//181 45//184 51//182 
f 40//187 39//185 52//188 48//186 
f 48//191 52//189 51//192 49//190 
o 002_Box
g Box
usemtl Glass_31dba20d-c091-4bb4-824a-73a05e61b1b8
v -91.161 0.000 -7.061
v -62.172 0.000 -50.346
v -61.197 0.000 -49.660
v -92.136 0.000 -7.747
v -63.147 0.000 -51.032
v -93.111 0.000 -8.433
v -32.208 0.000 -92.944
v -31.232 0.000 -92.258
v -33.183 0.000 -93.630
v -63.147 65.218 -51.032
v -33.183 65.218 -93.630
v -93.111 65.218 -8.433
v -63.147 130.436 -51.032
v -33.183 130.436 -93.630
v -93.111 130.436 -8.433
v -92.136 65.218 -7.747
v -91.161 65.218 -7.061
v -92.136 130.436 -7.747
v -91.161 130.436 -7.061
v -32.208 65.218 -92.944
v -31.232 65.218 -92.258
v -32.208 130.436 -92.944
v -31.232 130.436 -92.258
v -61.197 65.218 -49.660
v -61.197 130.436 -49.660
v -62.172 130.436 -50.346
vn 0.00000 -1.00000 -0.00000
vn 0.00000 -1.00000 -0.00000
vn 0.00000 -1.00000 -0.00000
vn 0.00000 -1.00000 -0.00000
vn 0.00000 -1.00000 -0.00000
vn 0.00000 -1.00000 -0.00000
vn 0.00000 -1.00000 -0.00000
vn 0.00000 -1.00000 -0.00000
vn 0.00000 -1.00000 -0.00000
vn 0.00000 -1.00000 -0.00000
vn 0.00000 -1.00000 -0.00000
vn 0.00000 -1.00000 -0.00000
vn 0.00000 -1.00000 -0.00000
vn 0.00000 -1.00000 -0.00000
vn 0.00000 -1.00000 -0.00000
vn 0.00000 -1.00000 -0.00000
vn -0.81792 0.00000 -0.57533
vn -0.81792 0.00000 -0.57533
vn -0.81792 0.00000 -0.57533
vn -0.81792 0.00000 -0.57533
vn -0.81792 0.00000 -0.57533
vn -0.81792 0.00000 -0.57533
vn -0.81792 0.00000 -0.57533
vn -0.81792 0.00000 -0.57533
vn -0.81792 0.00000 -0.57533
vn -0.81792 0.00000 -0.57533
vn -0.81792 0.00000 -0.57533
vn -0.81792 0.00000 -0.57533
vn -0.81792 0.00000 -0.57533
vn -0.81792 0.00000 -0.57533
vn -0.81792 0.00000 -0.57533
vn -0.81792 0.00000 -0.57533
vn -0.57533 -0.00000 0.81792
vn -0.57533 -0.00000 0.81792
vn -0.57533 -0.00000 0.81792
vn -0.57533 -0.00000 0.81792
vn -0.57533 -0.00000 0.81792
vn -0.57533 -0.00000 0.81792
vn -0.57533 -0.00000 0.81792
vn -0.57533 -0.00000 0.81792
vn -0.57533 -0.00000 0.81792
vn -0.57533 -0.00000 0.81792
vn -0.57533 -0.00000 0.81792
vn -0.57533 -0.00000 0.81792
vn -0.57533 -0.00000 0.81792
vn -0.57533 -0.00000 0.81792
vn -0.57533 -0.00000 0.81792
vn -0.57533 -0.00000 0.81792
vn 0.57533 0.00000 -0.81792
vn 0.57533 0.00000 -0.81792
vn 0.57533 0.00000 -0.81792
vn 0.57533 0.00000 -0.81792
vn 0.57533 0.00000 -0.81792
vn 0.57533 0.00000 -0.81792
vn 0.57533 0.00000 -0.81792
vn 0.57533 0.00000 -0.81792
vn 0.57533 0.00000 -0.81792
vn 0.57533 0.00000 -0.81792
vn 0.57533 0.00000 -0.81792
vn 0.57533 0.00000 -0.81792
vn 0.57533 0.00000 -0.81792
vn 0.57533 0.00000 -0.81792
vn 0.57533 0.00000 -0.81792
vn 0.57533 0.00000 -0.81792
vn 0.81792 -0.00000 0.57533
vn 0.81792 -0.00000 0.57533
vn 0.81792 -0.00000 0.57533
vn 0.81792 -0.00000 0.57533
vn 0.81792 -0.00000 0.57533
vn 0.81792 -0.00000 0.57533
vn 0.81792 -0.00000 0.57533
vn 0.81792 -0.00000 0.57533
vn 0.81792 -0.00000 0.57533
vn 0.81792 -0.00000 0.57533
vn 0.81792 -0.00000 0.57533
vn 0.81792 -0.00000 0.57533
vn 0.81792 -0.00000 0.57533
vn 0.81792 -0.00000 0.57533
vn 0.81792 -0.00000 0.57533
vn 0.81792 -0.00000 0.57533
vn 0.00000 1.00000 0.00000
vn 0.00000 1.00000 0.00000
vn 0.00000 1.00000 0.00000
vn 0.00000 1.00000 0.00000
vn 0.00000 1.00000 0.00000
vn 0.00000 1.00000 0.00000
vn 0.00000 1.00000 0.00000
vn 0.00000 1.00000 0.00000
vn 0.00000 1.00000 0.00000
vn 0.00000 1.00000 0.00000
vn 0.00000 1.00000 0.00000
vn 0.00000 1.00000 0.00000
vn 0.00000 1.00000 0.00000
vn 0.00000 1.00000 0.00000
vn 0.00000 1.00000 0.00000
vn 0.00000 1.00000 0.00000
f 55//195 53//193 56//196 54//194 
f 54//199 56//197 58//200 57//198 
f 60//203 55//201 54//204 59//202 
f 59//207 54//205 57//208 61//206 
f 63//211 61//209 57//212 62//210 
f 62//215 57//213 58//216 64//214 
f 66//219 63//217 62//220 65//218 
f 65//223 62//221 64//224 67//222 
f 64//227 58//225 56//228 68//226 
f 68//231 56//229 53//232 69//230 
f 67//235 64//233 68//236 70//234 
f 70//239 68//237 69//240 71//238 
f 73//243 60//241 59//244 72//242 
f 72//247 59//245 61//248 63//246 
f 75//251 73//249 72//252 74//250 
f 74//255 72//253 63//256 66//254 
f 69//259 53//257 55//260 76//258 
f 76//263 55//261 60//264 73//262 
f 71//267 69//265 76//268 77//266 
f 77//271 76//269 73//272 75//270 
f 65//275 67//273 70//276 78//274 
f 78//279 70//277 71//280 77//278 
f 66//283 65//281 78//284 74//282 
f 74//287 78//285 77//288 75//286 
o 003_Box
g Box
usemtl Glass_31dba20d-c091-4bb4-824a-73a05e61b1b8
v -34.886 -0.000 84.517
v -67.094 -0.000 43.571
v -66.140 -0.000 42.856
v -35.840 -0.000 85.232
v -68.047 -0.000 44.287
v -36.793 -0.000 85.948
v -98.348 -0.000 1.910
v -97.394 -0.000 1.195
v -99.301 -0.000 2.625
v -68.047 65.218 44.287
v -99.301 65.218 2.625
v -36.793 65.218 85.948
v -68.047 130.436 44.287
v -99.301 130.436 2.625
v -36.793 130.436 85.948
v -35.840 65.218 85.232
v -34.886 65.218 84.517
v -35.840 130.436 85.232
v -34.886 130.436 84.517
v -98.348 65.218 1.910
v -97.394 65.218 1.195
v -98.348 130.436 1.910
v -97.394 130.436 1.195
v -66.140 65.218 42.856
v -66.140 130.436 42.856
v -67.094 130.436 43.571
vn 0.00000 -1.00000 -0.00000
vn 0.00000 -1.00000 -0.00000
vn 0.00000 -1.00000 -0.00000
vn 0.00000 -1.00000 -0.00000
vn 0.00000 -1.00000 -0.00000
vn 0.00000 -1.00000 -0.00000
vn 0.00000 -1.00000 -0.00000
vn 0.00000 -1.00000 -0.00000
vn 0.00000 -1.00000 -0.00000
vn 0.00000 -1.00000 -0.00000
vn 0.00000 -1.00000 -0.00000
vn 0.00000 -1.00000 -0.00000
vn 0.00000 -1.00000 -0.00000
vn 0.00000 -1.00000 -0.00000
vn 0.00000 -1.00000 -0.00000
vn 0.00000 -1.00000 -0.00000
vn -0.79993 -0.00000 0.60010
vn -0.79993 -0.00000 0.60010
vn -0.79993 -0.00000 0.60010
vn -0.79993 -0.00000 0.60010
vn -0.79993 -0.00000 0.60010
vn -0.79993 -0.00000 0.60010
vn -0.79993 -0.00000 0.60010
vn -0.79993 -0.00000 0.60010
vn -0.79993 -0.00000 0.60010
vn -0.79993 -0.00000 0.60010
vn -0.79993 -0.00000 0.60010
vn -0.79993 -0.00000 0.60010
vn -0.79993 -0.00000 0.60010
vn -0.79993 -0.00000 0.60010
vn -0.79993 -0.00000 0.60010
vn -0.79993 -0.00000 0.60010
vn 0.60010 -0.00000 0.79993
vn 0.60010 -0.00000 0.79993
vn 0.60010 -0.00000 0.79993
vn 0.60010 -0.00000 0.79993
vn 0.60010 -0.00000 0.79993
vn 0.60010 -0.00000 0.79993
vn 0.60010 -0.00000 0.79993
vn 0.60010 -0.00000 0.79993
vn 0.60010 -0.00000 0.79993
vn 0.60010 -0.00000 0.79993
vn 0.60010 -0.00000 0.79993
vn 0.60010 -0.00000 0.79993
vn 0.60010 -0.00000 0.79993
vn 0.60010 -0.00000 0.79993
vn 0.60010 -0.00000 0.79993
vn 0.60010 -0.00000 0.79993
vn -0.60010 0.00000 -0.79993
vn -0.60010 0.00000 -0.79993
vn -0.60010 0.00000 -0.79993
vn -0.60010 0.00000 -0.79993
vn -0.60010 0.00000 -0.79993
vn -0.60010 0.00000 -0.79993
vn -0.60010 0.00000 -0.79993
vn -0.60010 0.00000 -0.79993
vn -0.60010 0.00000 -0.79993
vn -0.60010 0.00000 -0.79993
vn -0.60010 0.00000 -0.79993
vn -0.60010 0.00000 -0.79993
vn -0.60010 0.00000 -0.79993
vn -0.60010 0.00000 -0.79993
vn -0.60010 0.00000 -0.79993
vn -0.60010 0.00000 -0.79993
vn 0.79993 0.00000 -0.60010
vn 0.79993 0.00000 -0.60010
vn 0.79993 0.00000 -0.60010
vn 0.79993 0.00000 -0.60010
vn 0.79993 0.00000 -0.60010
vn 0.79993 0.00000 -0.60010
vn 0.79993 0.00000 -0.60010
vn 0.79993 0.00000 -0.60010
vn 0.79993 0.00000 -0.60010
vn 0.79993 0.00000 -0.60010
vn 0.79993 0.00000 -0.60010
vn 0.79993 0.00000 -0.60010
vn 0.79993 0.00000 -0.60010
vn 0.79993 0.00000 -0.60010
vn 0.79993 0.00000 -0.60010
vn 0.79993 0.00000 -0.60010
vn 0.00000 1.00000 0.00000
vn 0.00000 1.00000 0.00000
vn 0.00000 1.00000 0.00000
vn 0.00000 1.00000 0.00000
vn 0.00000 1.00000 0.00000
vn 0.00000 1.00000 0.00000
vn 0.00000 1.00000 0.00000
vn 0.00000 1.00000 0.00000
vn 0.00000 1.00000 0.00000
vn 0.00000 1.00000 0.00000
vn 0.00000 1.00000 0.00000
vn 0.00000 1.00000 0.00000
vn 0.00000 1.00000 0.00000
vn 0.00000 1.00000 0.00000
vn 0.00000 1.00000 0.00000
vn 0.00000 1.00000 0.00000
f 81//291 79//289 82//292 80//290 
f 80//295 82//293 84//296 83//294 
f 86//299 81//297 80//300 85//298 
f 85//303 80//301 83//304 87//302 
f 89//307 87//305 83//308 88//306 
f 88//311 83//309 84//312 90//310 
f 92//315 89//313 88//316 91//314 
f 91//319 88//317 90//320 93//318 
f 90//323 84//321 82//324 94//322 
f 94//327 82//325 79//328 95//326 
f 93//331 90//329 94//332 96//330 
f 96//335 94//333 95//336 97//334 
f 99//339 86//337 85//340 98//338 
f 98//343 85//341 87//344 89//342 
f 101//347 99//345 98//348 100//346 
f 100//351 98//349 89//352 92//350 
f 95//355 79//353 81//356 102//354 
f 102//359 81//357 86//360 99//358 
f 97//363 95//361 102//364 103//362 
f 103//367 102//365 99//368 101//366 
f 91//371 93//369 96//372 104//370 
f 104//375 96//373 97//376 103//374 
f 92//379 91//377 104//380 100//378 
f 100//383 104//381 103//384 101//382 
o 004_Box
g Box
usemtl Glass_31dba20d-c091-4bb4-824a-73a05e61b1b8
v 69.600 -0.000 59.296
v 20.706 -0.000 77.274
v 20.320 -0.000 76.146
v 69.986 -0.000 60.424
v 21.091 -0.000 78.402
v 70.371 -0.000 61.552
v -28.575 -0.000 94.124
v -28.960 -0.000 92.996
v -28.189 -0.000 95.252
v 21.091 65.218 78.402
v -28.189 65.218 95.252
v 70.371 65.218 61.552
v 21.091 130.436 78.402
v -28.189 130.436 95.252
v 70.371 130.436 61.552
v 69.986 65.218 60.424
v 69.600 65.218 59.296
v 69.986 130.436 60.424
v 69.600 130.436 59.296
v -28.575 65.218 94.124
v -28.960 65.218 92.996
v -28.575 130.436 94.124
v -28.960 130.436 92.996
v 20.320 65.218 76.146
v 20.320 130.436 76.146
v 20.706 130.436 77.274
vn 0.00000 -1.00000 -0.00000
vn 0.00000 -1.00000 -0.00000
vn 0.00000 -1.00000 -0.00000
vn 0.00000 -1.00000 -0.00000
vn 0.00000 -1.00000 -0.00000
vn 0.00000 -1.00000 -0.00000
vn 0.00000 -1.00000 -0.00000
vn 0.00000 -1.00000 -0.00000
vn 0.00000 -1.00000 -0.00000
vn 0.00000 -1.00000 -0.00000
vn 0.00000 -1.00000 -0.00000
vn 0.00000 -1.00000 -0.00000
vn 0.00000 -1.00000 -0.00000
vn 0.00000 -1.00000 -0.00000
vn 0.00000 -1.00000 -0.00000
vn 0.00000 -1.00000 -0.00000
vn 0.32354 -0.00000 0.94622
vn 0.32354 -0.00000 0.94622
vn 0.32354 -0.00000 0.94622
vn 0.32354 -0.00000 0.94622
vn 0.32354 -0.00000 0.94622
vn 0.32354 -0.00000 0.94622
vn 0.32354 -0.00000 0.94622
vn 0.32354 -0.00000 0.94622
vn 0.32354 -0.00000 0.94622
vn 0.32354 -0.00000 0.94622
vn 0.32354 -0.00000 0.94622
vn 0.32354 -0.00000 0.94622
vn 0.32354 -0.00000 0.94622
vn 0.32354 -0.00000 0.94622
vn 0.32354 -0.00000 0.94622
vn 0.32354 -0.00000 0.94622
vn 0.94622 0.00000 -0.32354
vn 0.94622 0.00000 -0.32354
vn 0.94622 0.00000 -0.32354
vn 0.94622 0.00000 -0.32354
vn 0.94622 0.00000 -0.32354
vn 0.94622 0.00000 -0.32354
vn 0.94622 0.00000 -0.32354
vn 0.94622 0.00000 -0.32354
vn 0.94622 0.00000 -0.32354
vn 0.94622 0.00000 -0.32354
vn 0.94622 0.00000 -0.32354
vn 0.94622 0.00000 -0.32354
vn 0.94622 0.00000 -0.32354
vn 0.94622 0.00000 -0.32354
vn 0.94622 0.00000 -0.32354
vn 0.94622 0.00000 -0.32354
vn -0.94622 -0.00000 0.32354
vn -0.94622 -0.00000 0.32354
vn -0.94622 -0.00000 0.32354
vn -0.94622 -0.00000 0.32354
vn -0.94622 -0.00000 0.32354
vn -0.94622 -0.00000 0.32354
vn -0.94622 -0.00000 0.32354
vn -0.94622 -0.00000 0.32354
vn -0.94622 -0.00000 0.32354
vn -0.94622 -0.00000 0.32354
vn -0.94622 -0.00000 0.32354
vn -0.94622 -0.00000 0.32354
vn -0.94622 -0.00000 0.32354
vn -0.94622 -0.00000 0.32354
vn -0.94622 -0.00000 0.32354
vn -0.94622 -0.00000 0.32354
vn -0.32354 0.00000 -0.94622
vn -0.32354 0.00000 -0.94622
vn -0.32354 0.00000 -0.94622
vn -0.32354 0.00000 -0.94622
vn -0.32354 0.00000 -0.94622
vn -0.32354 0.00000 -0.94622
vn -0.32354 0.00000 -0.94622
vn -0.32354 0.00000 -0.94622
vn -0.32354 0.00000 -0.94622
vn -0.32354 0.00000 -0.94622
vn -0.32354 0.00000 -0.94622
vn -0.32354 0.00000 -0.94622
vn -0.32354 0.00000 -0.94622
vn -0.32354 0.00000 -0.94622
vn -0.32354 0.00000 -0.94622
vn -0.32354 0.00000 -0.94622
vn 0.00000 1.00000 0.00000
vn 0.00000 1.00000 0.00000
vn 0.00000 1.00000 0.00000
vn 0.00000 1.00000 0.00000
vn 0.00000 1.00000 0.00000
vn 0.00000 1.00000 0.00000
vn 0.00000 1.00000 0.00000
vn 0.00000 1.00000 0.00000
vn 0.00000 1.00000 0.00000
vn 0.00000 1.00000 0.00000
vn 0.00000 1.00000 0.00000
vn 0.00000 1.00000 0.00000
vn 0.00000 1.00000 0.00000
vn 0.00000 1.00000 0.00000
vn 0.00000 1.00000 0.00000
vn 0.00000 1.00000 0.00000
f 107//387 105//385 108//388 106//386 
f 106//391 108//389 110//392 109//390 
f 112//395 107//393 106//396 111//394 
f 111//399 106//397 109//400 113//398 
f 115//403 113//401 109//404 114//402 
f 114//407 109//405 110//408 116//406 
f 118//411 115//409 114//412 117//410 
f 117//415 114//413 116//416 119//414 
f 116//419 110//417 108//420 120//418 
f 120//423 108//421 105//424 121//422 
f 119//427 116//425 120//428 122//426 
f 122//431 120//429 121//432 123//430 
f 125//435 112//433 111//436 124//434 
f 124//439 111//437 113//440 115//438 
f 127//443 125//441 124//444 126//442 
f 126//447 124//445 115//448 118//446 
f 121//451 105//449 107//452 128//450 
f 128//455 107//453 112//456 125//454 
f 123//459 121//457 128//460 129//458 
f 129//463 128//461 125//464 127//462 
f 117//467 119//465 122//468 130//466 
f 130//471 122//469 123//472 129//470 
f 118//475 117//473 130//476 126//474 
f 126//479 130//477 129//480 127//478 
